<svg id="eYm0Zw9GB5I1" xmlns="http://www.w3.org/2000/svg" xmlns:xlink="http://www.w3.org/1999/xlink" viewBox="0 0 666 237" shape-rendering="geometricPrecision" text-rendering="geometricPrecision"><path d="M0,0c3.948687.640209,7.869316,1.358661,11.789063,2.15625C25.606726,4.899873,38.917757,6.855649,53,7c.939082.019014,1.878164.038027,2.845703.057617c20.236137.404193,39.486622-1.07645,59.216309-5.632324C117.692402,0.848052,120.338868,0.40908,123,0c.985584,1.579346,1.963225,3.163652,2.9375,4.75.545273.881719,1.090547,1.763438,1.652344,2.671875c2.061083,3.768186,2.53566,6.898753,2.523681,11.163086-.000075.900632-.000151,1.801263-.000228,2.729187-.005162.963675-.010323,1.92735-.015641,2.920227-.002122,1.489743-.002122,1.489743-.004287,3.009583-.005593,3.168711-.018144,6.337352-.030869,9.506042-.005016,2.149739-.009579,4.299478-.013672,6.449219C130.037809,48.466173,130.020549,53.733075,130,59c-4.62,0-9.24,0-14,0-6-10.75-6-10.75-6-13-48.015.495-48.015.495-97,1-1.98,3.96-3.96,7.92-6,12-4.62,0-9.24,0-14,0-.099243-6.546993-.171646-13.093544-.219727-19.641113-.020053-2.225013-.047304-4.449973-.082031-6.674805-.048791-3.207326-.071274-6.413952-.088867-9.621582-.020645-.986777-.04129-1.973555-.062561-2.990234C-7.455795,11.953267,-5.202904,6.243485,0,0Z" transform="translate(39 135)" fill="#8ad96c"/><path d="M0,0C8.109121,6.774709,14.373517,17.6808,15.363281,28.308594c.333598,12.940077-3.40634,24.089063-12.238281,33.59375-8.986133,8.61706-19.05602,12.194549-31.363281,11.992187-11.712153-.641999-21.77495-5.176883-29.851563-13.800781C-65.711772,50.086842,-68.955205,39.17236,-67.875,26.75c2.029725-11.009334,7.125327-20.449569,16-27.4375C-35.650548,-11.716303,-16.019371,-11.396866,0,0Z" transform="translate(181.875 38.25)" fill="#8ad96c"/><path d="M0,0c1.063477.003223,2.126953.006445,3.222656.009766c1.641621.012568,1.641621.012568,3.316407.02539c1.117617.004512,2.235234.009024,3.386718.013672c2.74615.011736,5.492187.028155,8.238282.048828.291328.761836.582656,1.523672.882812,2.308594c6.097287,15.358261,14.796261,26.685611,30.117188,33.691406c5.572149,1.992084,11.272385,3.527379,17,5-3.298391,1.844863-6.510904,2.723516-10.1875,3.5625-1.066055.248789-2.13211.497578-3.230469.753907-7.65691,1.461242-15.220856,1.850598-23.003906,1.886718-.980675.0057-1.961349.0114-2.971741.017273-2.07077.0094-4.141554.015964-6.212342.019837-3.093871.009609-6.187048.040641-9.280761.072265-18.111028.098043-35.382571-1.99461-52.925781-6.5-1.646456-.408955-1.646456-.408955-3.326172-.826172-2.62277-.652829-5.242442-1.31809-7.861328-1.986328c0-3.63,0-7.26,0-11c6.27,0,12.54,0,19,0c.391875-1.4025.783749-2.805,1.1875-4.25.429257-1.357383.429257-1.357383.867187-2.742187.644578-2.050931,1.231046-4.120813,1.765625-6.203125c1.063214-3.407308,2.048704-5.930035,4.179688-8.804688c4.530069-2.265035,9.021337-3.210358,14-4c.941257-.174345,1.882514-.348691,2.852294-.52832C-5.929885,0.111734,-3.084494,-0.016583,0,0Z" transform="translate(84.8359 84.9023)" fill="#8ad96c"/><path d="M0,0C4.62,0,9.24,0,14,0c3.63,10.56,7.26,21.12,11,32c3.24932-10.156035,3.24932-10.156035,6.491943-20.314209.403557-1.256272.807115-2.512544,1.222901-3.806885.316203-.996344.316203-.996344.638794-2.012817C34.885928,1.114072,34.885928,1.114072,36,0c2.186395-.072589,4.375004-.083738,6.5625-.0625c1.796309.013535,1.796309.013535,3.628906.027344C47.118242,-0.023555,48.045078,-0.011953,49,0c3.183308,6.691848,5.567995,13.487371,7.75,20.5625.47373,1.513037.47373,1.513037.957031,3.056641C58.476146,26.077978,59.240362,28.538222,60,31c2.051472-3.077208,2.990215-5.658084,4.128906-9.164062.592647-1.805977.592647-1.805977,1.197266-3.648438.412489-1.27071.824594-2.541545,1.236328-3.8125.810197-2.4934,1.624779-4.985248,2.441406-7.476562.359085-1.106822.718169-2.213643,1.088135-3.354004C71,1,71,1,72,0c2.186395-.072589,4.375004-.083738,6.5625-.0625c1.796309.013535,1.796309.013535,3.628906.027344C83.118242,-0.023555,84.045078,-0.011953,85,0c-2.429302,9.959848-5.826694,19.605817-9.152832,29.291992-.981218,2.85938-1.955529,5.721051-2.929199,8.583008-.620688,1.815243-1.241767,3.630352-1.863281,5.445313-.291661.857156-.583321,1.714312-.88382,2.597442C68.11516,51.88484,68.11516,51.88484,67,53c-2.186395.072589-4.375004.083738-6.5625.0625-1.796309-.013535-1.796309-.013535-3.628906-.027344C55.881758,53.023555,54.954922,53.011953,54,53c-2.967315-7.10245-5.464234-14.277196-7.75-21.625-.31582-1.00418-.631641-2.008359-.957031-3.042969C44.525185,25.889082,43.760924,23.445093,43,21c-2.967315,7.10245-5.464234,14.277196-7.75,21.625-.47373,1.50627-.47373,1.50627-.957031,3.042969C33.525192,48.110896,32.762097,50.555295,32,53c-4.62,0-9.24,0-14,0-.545273-1.586836-1.090547-3.173672-1.652344-4.808594C11.919405,35.337301,7.427661,22.512065,2.744385,9.748291C2.203824,8.264137,2.203824,8.264137,1.652344,6.75c-.319768-.871406-.639536-1.742812-.968994-2.640625C0,2,0,2,0,0Z" transform="translate(263 96)" fill="#8cda6d"/><path d="M0,0C37.216743,0,37.216743,0,45.398438,6.339844c6.291558,6.521737,8.984456,13.856447,8.878906,22.746094C53.581008,36.402362,49.593583,43.248745,44,48c-2.691406,1.191406-2.691406,1.191406-5,2c1.582195,2.542382,3.165718,5.083919,4.75,7.625.443438.712852.886875,1.425703,1.34375,2.160156c2.024763,3.245576,4.063046,6.463514,6.234375,9.613282C53,72,53,72,53,74c-5.025106.96482-10.11303,1.856482-15,0-5.877954-5.276151-9.289411-13.728738-12-21-2.97,0-5.94,0-9,0c2.148438-6.640625,2.148438-6.640625,3-9c.380918-1.121484.380918-1.121484.769531-2.265625C22,40,22,40,24.425781,39.53125c.952617-.010312,1.905235-.020625,2.886719-.03125c3.720169-.214251,5.457833-.368762,8.75-2.25c3.586397-4.164848,4.355783-7.945836,4.183594-13.324219C39.865426,20.946904,38.947497,19.27208,37,17c-7.719784-4.359374-7.719784-4.359374-25-4c0,20.13,0,40.26,0,61-3.96,0-7.92,0-12,0C0,49.58,0,25.16,0,0Z" transform="translate(434 75)" fill="#8bda6c"/><path d="M0,0C7.441111,4.433003,11.802272,9.995295,14.835938,18.09375c1.089312,4.514824,2.143526,9.712947,0,14-13.2.33-26.4.66-40,1c5.594389,5.995026,5.594389,5.995026,12.9375,7.1875c2.328728-.023148,4.219591-.228546,6.484375-.820312c3.225351-.459369,4.93101.268082,7.890625,1.570312.883007.380273,1.766015.760547,2.675781,1.152344.663867.300351,1.327734.600703,2.011719.910156c0,.99,0,1.98,0,3-5.972657,5.791667-11.334279,7.20414-19.4375,7.4375-6.206987-.134668-10.527196-.802904-15.5625-4.4375-1.03125-.66-2.0625-1.32-3.125-2-5.215716-4.699875-8.292549-11.488768-9.425782-18.320312-.374596-9.054515,2.158126-15.553486,7.863282-22.492188C-23.381557,-1.426894,-11.875808,-5.411761,0,0Z" transform="translate(530.164 96.9062)" fill="#8cda6c"/><path d="M0,0c.99.66,1.98,1.32,3,2-.575757,3.352507-1.593063,4.938186-4.0625,7.25-.547852.520781-1.095703,1.041563-1.660156,1.578125C-3.14418,11.214844,-3.565703,11.601563,-4,12c-.66-.268125-1.32-.53625-2-.8125-.99-.391875-1.98-.78375-3-1.1875-.60457-.264258-1.209141-.528516-1.832031-.800781C-15.809508,7.127724,-19.603872,6.39076,-25,7c-3.518123,1.372672-3.518123,1.372672-6,4-1.413498,3.394182-1.413498,3.394182-1,7c3.576238,4.460099,6.895465,5.974462,12.3125,7.5625C-9.604692,28.699239,0.218711,32.59428,6.238281,41.917969C8.143887,47.126625,7.805851,53.721736,5.8125,58.875c-3.146099,5.424308-7.422888,9.633992-13.457031,11.683594-11.87036,2.224462-22.843227.746666-32.980469-5.808594-.78375-.5775-1.5675-1.155-2.375-1.75c1.55501-3.816842,4.035955-6.191957,7-9c2.823103,1.112131,5.532189,2.266095,8.25,3.625c5.785979,2.121526,10.98255,2.316435,16.75,0c3.07339-1.293894,3.07339-1.293894,4-3.625.417021-2.915769.417021-2.915769,0-6-2.67111-3.245674-5.036033-4.657469-9-5.9375C-39.447175,34.037798,-39.447175,34.037798,-45,24c-1.747886-5.759812-1.929218-11.639701.5625-17.1875c2.87102-5.082618,6.772236-8.698144,12.15625-10.949219C-21.136193,-7.06893,-10.012203,-5.562335,0,0Z" transform="translate(262 79)" fill="#8cda6c"/><path d="M0,0C6.36019,3.755289,10.398653,9.440508,12.625,16.4375c.373824,2.864337.352417,5.67398.292969,8.558594-.004245.789153-.00849,1.578306-.012863,2.391372-.016661,2.496207-.054288,4.991576-.092606,7.487534-.015063,1.702462-.028749,3.404937-.041016,5.107422-.032901,4.15201-.084594,8.303403-.146484,12.455078-4.29,0-8.58,0-13,0-.009346-1.003777-.018691-2.007554-.02832-3.041748-.039982-3.737099-.105763-7.473382-.1792-11.209961-.028162-1.614802-.0494-3.22974-.063476-4.844727-.021497-2.326636-.068176-4.651639-.119629-6.977783-.001229-.717902-.002457-1.435804-.003723-2.175461-.140264-4.839352-1.169912-7.347136-4.605652-10.75032-3.697254-1.848627-7.964614-1.475871-12-1-2.934232,1.796469-4.472054,2.944107-6,6-.156442,2.55106-.258214,5.079187-.316406,7.632813-.020781.751835-.041562,1.503671-.062973,2.278289-.065448,2.404539-.124358,4.809188-.183121,7.213898-.04319,1.628918-.086804,3.257824-.130859,4.886719-.107145,3.99598-.208425,7.992072-.306641,11.988281-4.29,0-8.58,0-13,0c0-17.49,0-34.98,0-53c4.29,0,8.58,0,13,0c0,.99,0,1.98,0,3c1.0725-.66,2.145-1.32,3.25-2C-14.533142,-2.835053,-6.756114,-2.989775,0,0Z" transform="translate(588.375 96.5625)" fill="#8cda6d"/><path d="M0,0C0,4.29,0,8.58,0,13c-1.0725.226875-2.145.45375-3.25.6875C-7.485501,15.169925,-8.686492,16.229839,-11,20c-1.255569,3.179218-1.255569,3.179218-2,6c2.64,0,5.28,0,8,0c1.351485,4.30786,2,7.419576,2,12-3.3,0-6.6,0-10,0c0,11.88,0,23.76,0,36-4.29,0-8.58,0-13,0-.099241-7.38318-.171646-14.765967-.219727-22.149658-.020054-2.509184-.047304-5.018321-.082031-7.527344-.04879-3.616897-.071274-7.233174-.088867-10.850342-.020645-1.112858-.04129-2.225717-.062561-3.372299-.002817-9.886267,2.708054-17.109749,9.460999-24.369888C-11.66684,1.104726,-6.981702,0,0,0Z" transform="translate(397 75)" fill="#8cda6d"/><path d="M0,0C0,6.6,0,13.2,0,20c2.31,0,4.62,0,7,0c2.006918,4.933673,3,7.555206,3,13-3.3,0-6.6,0-10,0c.140162,3.146182.286849,6.291818.4375,9.4375.039316.897832.078633,1.795664.119141,2.720703.062841,1.281006.062841,1.281006.126953,2.587891.054986,1.186139.054986,1.186139.111084,2.39624C0.805633,52.014014,0.805633,52.014014,2,53c1.848919.233639,3.70488.413036,5.5625.5625c1.011914.083789,2.023828.167578,3.066406.253906C11.802598,53.907285,11.802598,53.907285,13,54c.507579,1.413969,1.005749,2.831317,1.5,4.25.417656,1.183359.417656,1.183359.84375,2.390625C16,63,16,63,16,67c-17.351489.749884-17.351489.749884-23-4-4.323639-4.557349-6.258842-8.878777-6.227051-15.157471.000151-1.00066.000302-2.00132.000458-3.032303.010323-1.067882.020645-2.135765.031281-3.236007.002829-1.102728.005659-2.205455.008575-3.341599.011177-3.515151.036278-7.030046.061737-10.54512.010033-2.386064.019158-4.772132.027344-7.158203C-13.075628,14.686111,-13.042175,8.843074,-13,3c1.978808-.501417,3.958057-1.001097,5.9375-1.5c1.102148-.278437,2.204297-.556875,3.339844-.84375C-1,0,-1,0,0,0Z" transform="translate(619 82)" fill="#8dda6e"/><path d="M0,0C0,6.6,0,13.2,0,20c2.64,0,5.28,0,8,0c1.351485,4.30786,2,7.419576,2,12-3.3,0-6.6,0-10,0c.140162,3.146182.286849,6.291818.4375,9.4375.039316.897832.078633,1.795664.119141,2.720703.062841,1.281006.062841,1.281006.126953,2.587891.054986,1.186139.054986,1.186139.111084,2.39624C0.805633,51.014014,0.805633,51.014014,2,52c1.848919.233639,3.70488.413036,5.5625.5625c1.011914.083789,2.023828.167578,3.066406.253906C11.802598,52.907285,11.802598,52.907285,13,53c.507579,1.413969,1.005749,2.831317,1.5,4.25.417656,1.183359.417656,1.183359.84375,2.390625C16,62,16,62,16,66c-17.351489.749884-17.351489.749884-23-4-3.959691-4.272299-5.127456-7.360527-5.113525-13.114014.000075-1.040852.000151-2.081705.000228-3.154098.005162-1.121953.010323-2.243906.015641-3.399857.001415-1.149949.00283-2.299899.004287-3.484695.005605-3.678305.018158-7.356549.030869-11.034836.005014-2.491536.009577-4.983072.013672-7.474609C-12.037793,14.22524,-12.021051,8.112624,-12,2c4.30786-1.351485,7.419576-2,12-2Z" transform="translate(413 83)" fill="#8bda6c"/><path d="M0,0C4.29,0,8.58,0,13,0c0,17.49,0,34.98,0,53-4.29,0-8.58,0-13,0C0,35.51,0,18.02,0,0Z" transform="translate(352 96)" fill="#8cda6d"/><path d="M0,0C13.53,0,27.06,0,41,0c0,3.3,0,6.6,0,10-13.53,0-27.06,0-41,0C0,6.7,0,3.4,0,0Z" transform="translate(80 157)" fill="#fff"/><path d="M0,0C5.61,0,11.22,0,17,0c0,3.3,0,6.6,0,10-5.61,0-11.22,0-17,0C0,6.7,0,3.4,0,0Z" transform="translate(135 157)" fill="#fff"/><path d="M0,0C5.61,0,11.22,0,17,0c0,3.3,0,6.6,0,10-5.61,0-11.22,0-17,0C0,6.7,0,3.4,0,0Z" transform="translate(49 157)" fill="#fff"/><path d="M0,0C4.29,0,8.58,0,13,0c0,4.29,0,8.58,0,13-4.29,0-8.58,0-13,0C0,8.71,0,4.42,0,0Z" transform="translate(352 75)" fill="#8dda6e"/><path d="M0,0C4.561087,2.240534,5.705248,3.410497,8,8c-8.91,0-17.82,0-27,0c4.908446-8.180743,9.808107-9.226484,19-8Z" transform="translate(523 108)" fill="#fff"/><line x1="0" y1="16.74099" x2="0" y2="-16.74099" transform="translate(155.528273 58.25901)" fill="#fff" stroke="#fff" stroke-width="3"/><line x1="0" y1="16.74099" x2="0" y2="-16.74099" transform="matrix(.707107-.707107-.488232-.488232 163.256558 82.118726)" fill="#fff" stroke="#fff" stroke-width="3"/></svg>
